<svg width="900" height="300" viewBox="0 0 900 300" fill="none" xmlns="http://www.w3.org/2000/svg">
<rect width="900" height="300" fill="url(#paint0_linear_102_29)"/>
<rect width="900" height="300" fill="#F178B6" fill-opacity="0.5"/>
<path d="M260.801 97.1772H255.916V129.792C255.916 131.341 256.174 132.393 256.69 132.949C257.227 133.485 258.011 133.753 259.043 133.753H261.605V137H240.547V133.753H243.108C244.161 133.753 244.945 133.485 245.461 132.949C245.978 132.393 246.236 131.341 246.236 129.792V97.1772H241.351C239.604 97.1772 238.363 97.5347 237.628 98.2495C236.893 98.9644 236.446 100.047 236.288 101.496L235.871 105.279H231.76L232.088 93.4541H270.094L270.392 105.279H266.311L265.864 101.496C265.705 100.047 265.259 98.9644 264.524 98.2495C263.809 97.5347 262.568 97.1772 260.801 97.1772ZM306.758 120.529C306.758 126.267 305.408 130.547 302.707 133.366C300.027 136.186 296.075 137.596 290.853 137.596C285.869 137.596 282.026 136.186 279.326 133.366C277.956 131.956 276.903 130.179 276.169 128.035C275.454 125.89 275.096 123.388 275.096 120.529C275.096 114.79 276.437 110.521 279.117 107.721C281.818 104.921 285.789 103.521 291.031 103.521C295.996 103.521 299.838 104.921 302.558 107.721C303.909 109.131 304.941 110.908 305.656 113.053C306.391 115.177 306.758 117.669 306.758 120.529ZM284.568 120.529C284.568 122.693 284.687 124.599 284.926 126.248C285.164 127.896 285.531 129.276 286.028 130.388C287.04 132.632 288.688 133.753 290.972 133.753C293.255 133.753 294.904 132.632 295.916 130.388C296.433 129.276 296.79 127.896 296.989 126.248C297.207 124.599 297.316 122.693 297.316 120.529C297.316 118.345 297.207 116.438 296.989 114.81C296.77 113.162 296.403 111.792 295.886 110.7C294.874 108.515 293.216 107.423 290.912 107.423C288.609 107.423 286.961 108.515 285.968 110.7C285.472 111.792 285.114 113.162 284.896 114.81C284.677 116.438 284.568 118.345 284.568 120.529ZM344.733 105.458C344.733 106.53 344.385 107.384 343.69 108.019C343.015 108.635 341.913 108.942 340.384 108.942C340.384 108.148 340.156 107.523 339.699 107.066C339.243 106.609 338.696 106.381 338.061 106.381C337.723 106.381 337.356 106.45 336.959 106.589C336.582 106.728 336.284 106.877 336.065 107.036C336.899 107.95 337.604 109.121 338.18 110.551C338.756 111.98 339.044 113.4 339.044 114.81C339.044 116.339 338.796 117.759 338.299 119.069C337.823 120.36 337.078 121.482 336.065 122.435C335.053 123.388 333.772 124.133 332.223 124.669C330.674 125.205 328.838 125.473 326.713 125.473C326.216 125.473 325.571 125.453 324.777 125.414C324.002 125.354 323.476 125.314 323.198 125.294C322.642 125.592 322.136 126.009 321.679 126.545C321.223 127.082 320.994 127.697 320.994 128.392C320.994 129.067 321.252 129.564 321.769 129.881C322.305 130.199 323 130.358 323.854 130.358H331.24C333.266 130.358 335.013 130.576 336.482 131.013C337.952 131.43 339.173 132.036 340.146 132.83C341.099 133.624 341.804 134.607 342.261 135.779C342.717 136.931 342.946 138.231 342.946 139.681C342.946 143.533 341.506 146.472 338.627 148.497C337.177 149.51 335.341 150.284 333.117 150.82C330.893 151.376 328.272 151.654 325.253 151.654C315.742 151.654 310.986 148.825 310.986 143.166C310.986 140.981 311.691 139.303 313.101 138.132C314.511 136.98 316.556 136.295 319.237 136.077C318.065 135.62 317.023 134.955 316.109 134.081C315.216 133.188 314.769 132.046 314.769 130.656C314.769 129.266 315.295 128.064 316.348 127.052C317.42 126.039 318.701 125.106 320.19 124.252C318.323 123.577 316.814 122.425 315.663 120.797C314.531 119.149 313.965 117.153 313.965 114.81C313.965 111.236 314.997 108.466 317.063 106.5C319.147 104.514 322.364 103.521 326.713 103.521C328.162 103.521 329.503 103.71 330.734 104.087C331.985 104.445 333.067 104.882 333.98 105.398C334.775 104.544 335.648 103.76 336.602 103.045C337.575 102.33 338.816 101.973 340.325 101.973C341.675 101.973 342.747 102.3 343.542 102.956C344.336 103.611 344.733 104.445 344.733 105.458ZM322.275 114.81C322.275 116.835 322.573 118.523 323.168 119.874C323.784 121.204 324.906 121.869 326.534 121.869C328.202 121.869 329.314 121.204 329.87 119.874C330.426 118.543 330.704 116.826 330.704 114.721C330.704 112.596 330.416 110.809 329.84 109.359C329.265 107.91 328.143 107.185 326.475 107.185C324.846 107.185 323.734 107.93 323.139 109.419C322.563 110.888 322.275 112.685 322.275 114.81ZM318.194 143.046C318.194 146.343 320.587 147.991 325.373 147.991C328.947 147.991 331.548 147.474 333.176 146.442C334.805 145.409 335.619 143.89 335.619 141.885C335.619 140.594 335.212 139.691 334.397 139.174C333.583 138.658 332.352 138.4 330.704 138.4H323.615C322.186 138.4 320.925 138.708 319.833 139.323C318.74 139.959 318.194 141.2 318.194 143.046ZM380.146 105.458C380.146 106.53 379.799 107.384 379.104 108.019C378.429 108.635 377.327 108.942 375.798 108.942C375.798 108.148 375.569 107.523 375.113 107.066C374.656 106.609 374.11 106.381 373.474 106.381C373.137 106.381 372.769 106.45 372.372 106.589C371.995 106.728 371.697 106.877 371.479 107.036C372.313 107.95 373.018 109.121 373.594 110.551C374.169 111.98 374.457 113.4 374.457 114.81C374.457 116.339 374.209 117.759 373.713 119.069C373.236 120.36 372.492 121.482 371.479 122.435C370.466 123.388 369.185 124.133 367.637 124.669C366.088 125.205 364.251 125.473 362.126 125.473C361.63 125.473 360.985 125.453 360.19 125.414C359.416 125.354 358.89 125.314 358.612 125.294C358.056 125.592 357.549 126.009 357.093 126.545C356.636 127.082 356.408 127.697 356.408 128.392C356.408 129.067 356.666 129.564 357.182 129.881C357.718 130.199 358.413 130.358 359.267 130.358H366.654C368.679 130.358 370.426 130.576 371.896 131.013C373.365 131.43 374.586 132.036 375.559 132.83C376.512 133.624 377.217 134.607 377.674 135.779C378.131 136.931 378.359 138.231 378.359 139.681C378.359 143.533 376.92 146.472 374.04 148.497C372.591 149.51 370.754 150.284 368.53 150.82C366.306 151.376 363.685 151.654 360.667 151.654C351.155 151.654 346.4 148.825 346.4 143.166C346.4 140.981 347.105 139.303 348.514 138.132C349.924 136.98 351.97 136.295 354.65 136.077C353.479 135.62 352.436 134.955 351.523 134.081C350.629 133.188 350.182 132.046 350.182 130.656C350.182 129.266 350.709 128.064 351.761 127.052C352.833 126.039 354.114 125.106 355.603 124.252C353.737 123.577 352.228 122.425 351.076 120.797C349.944 119.149 349.378 117.153 349.378 114.81C349.378 111.236 350.411 108.466 352.476 106.5C354.561 104.514 357.778 103.521 362.126 103.521C363.576 103.521 364.916 103.71 366.147 104.087C367.398 104.445 368.48 104.882 369.394 105.398C370.188 104.544 371.062 103.76 372.015 103.045C372.988 102.33 374.229 101.973 375.738 101.973C377.088 101.973 378.161 102.3 378.955 102.956C379.749 103.611 380.146 104.445 380.146 105.458ZM357.688 114.81C357.688 116.835 357.986 118.523 358.582 119.874C359.197 121.204 360.319 121.869 361.948 121.869C363.616 121.869 364.728 121.204 365.283 119.874C365.839 118.543 366.117 116.826 366.117 114.721C366.117 112.596 365.83 110.809 365.254 109.359C364.678 107.91 363.556 107.185 361.888 107.185C360.26 107.185 359.148 107.93 358.552 109.419C357.976 110.888 357.688 112.685 357.688 114.81ZM353.608 143.046C353.608 146.343 356 147.991 360.786 147.991C364.36 147.991 366.961 147.474 368.59 146.442C370.218 145.409 371.032 143.89 371.032 141.885C371.032 140.594 370.625 139.691 369.811 139.174C368.997 138.658 367.766 138.4 366.117 138.4H359.029C357.599 138.4 356.338 138.708 355.246 139.323C354.154 139.959 353.608 141.2 353.608 143.046ZM382.736 137V133.753H383.451C384.563 133.753 385.566 133.485 386.46 132.949C387.353 132.413 387.8 131.361 387.8 129.792V97.5942C387.8 96.105 387.343 95.1121 386.43 94.6157C385.516 94.1193 384.524 93.8711 383.451 93.8711H382.736V90.6543H397.063V129.792C397.063 131.361 397.51 132.413 398.403 132.949C399.317 133.485 400.32 133.753 401.412 133.753H402.127V137H382.736ZM423.094 137.596C417.951 137.596 414.02 136.126 411.299 133.188C408.619 130.288 407.278 126.168 407.278 120.827C407.278 115.128 408.599 110.809 411.24 107.87C413.841 104.971 417.564 103.521 422.409 103.521C426.897 103.521 430.382 104.763 432.864 107.245C434.095 108.476 435.038 110.005 435.693 111.832C436.348 113.658 436.676 115.783 436.676 118.206V121.333H416.69C416.75 123.378 416.978 125.136 417.375 126.605C417.772 128.074 418.309 129.286 418.984 130.239C420.334 132.105 422.29 133.039 424.851 133.039C426.857 133.039 428.604 132.592 430.094 131.698C431.583 130.785 432.705 129.583 433.459 128.094C434.551 128.69 435.098 129.683 435.098 131.073C435.098 131.946 434.859 132.78 434.383 133.575C433.906 134.349 433.171 135.034 432.179 135.63C431.186 136.226 429.935 136.702 428.426 137.06C426.936 137.417 425.159 137.596 423.094 137.596ZM422.528 107.483C420.821 107.483 419.46 108.327 418.448 110.015C417.455 111.702 416.909 114.175 416.809 117.431H427.353C427.353 115.882 427.264 114.492 427.085 113.261C426.926 112.03 426.648 110.988 426.251 110.134C425.437 108.367 424.196 107.483 422.528 107.483ZM487.189 97.1772H482.305V129.792C482.305 131.341 482.563 132.393 483.079 132.949C483.615 133.485 484.399 133.753 485.432 133.753H487.994V137H466.935V133.753H469.497C470.549 133.753 471.334 133.485 471.85 132.949C472.366 132.393 472.624 131.341 472.624 129.792V97.1772H467.74C465.992 97.1772 464.751 97.5347 464.017 98.2495C463.282 98.9644 462.835 100.047 462.676 101.496L462.259 105.279H458.149L458.476 93.4541H496.482L496.78 105.279H492.7L492.253 101.496C492.094 100.047 491.647 98.9644 490.913 98.2495C490.198 97.5347 488.957 97.1772 487.189 97.1772ZM537.734 133.753V137H524.181V116.925C524.181 114.463 523.834 112.477 523.139 110.968C522.464 109.459 521.183 108.704 519.297 108.704C517.946 108.704 516.884 109.151 516.11 110.044C515.335 110.938 514.789 112.11 514.471 113.559C514.154 114.989 513.995 116.518 513.995 118.146V129.792C513.995 131.42 514.372 132.493 515.127 133.009C515.881 133.505 516.973 133.753 518.403 133.753H518.582V137H499.847V133.753H499.966C501.475 133.753 502.647 133.495 503.481 132.979C504.315 132.443 504.732 131.301 504.732 129.554V97.5942C504.732 96.105 504.275 95.1121 503.362 94.6157C502.448 94.1193 501.455 93.8711 500.383 93.8711H499.668V90.6543H513.995V100.692C513.995 101.486 513.965 102.34 513.905 103.253C513.866 104.167 513.816 105.011 513.757 105.785C513.717 106.242 513.677 106.699 513.637 107.155C513.598 107.592 513.558 108.029 513.518 108.466H514.054C515.226 106.282 516.546 104.911 518.016 104.355C519.505 103.799 521.292 103.521 523.377 103.521C524.946 103.521 526.356 103.75 527.607 104.207C528.877 104.663 529.94 105.368 530.794 106.321C531.667 107.274 532.323 108.496 532.759 109.985C533.216 111.454 533.445 113.222 533.445 115.287V129.435C533.445 131.202 533.752 132.363 534.368 132.919C535.003 133.475 536.066 133.753 537.555 133.753H537.734ZM559.208 137.596C554.065 137.596 550.133 136.126 547.413 133.188C544.732 130.288 543.392 126.168 543.392 120.827C543.392 115.128 544.712 110.809 547.353 107.87C549.954 104.971 553.677 103.521 558.522 103.521C563.01 103.521 566.495 104.763 568.977 107.245C570.208 108.476 571.151 110.005 571.807 111.832C572.462 113.658 572.79 115.783 572.79 118.206V121.333H552.804C552.863 123.378 553.092 125.136 553.489 126.605C553.886 128.074 554.422 129.286 555.097 130.239C556.447 132.105 558.403 133.039 560.965 133.039C562.97 133.039 564.718 132.592 566.207 131.698C567.696 130.785 568.818 129.583 569.573 128.094C570.665 128.69 571.211 129.683 571.211 131.073C571.211 131.946 570.973 132.78 570.496 133.575C570.02 134.349 569.285 135.034 568.292 135.63C567.299 136.226 566.048 136.702 564.539 137.06C563.05 137.417 561.273 137.596 559.208 137.596ZM558.642 107.483C556.934 107.483 555.574 108.327 554.561 110.015C553.568 111.702 553.022 114.175 552.923 117.431H563.467C563.467 115.882 563.377 114.492 563.199 113.261C563.04 112.03 562.762 110.988 562.365 110.134C561.551 108.367 560.31 107.483 558.642 107.483ZM615.709 133.753V137H602.156V116.925C602.156 114.463 601.809 112.477 601.114 110.968C600.439 109.459 599.158 108.704 597.272 108.704C595.921 108.704 594.859 109.151 594.085 110.044C593.31 110.938 592.764 112.11 592.447 113.559C592.129 114.989 591.97 116.518 591.97 118.146V129.792C591.97 131.42 592.347 132.493 593.102 133.009C593.856 133.505 594.948 133.753 596.378 133.753H596.557V137H577.822V133.753H577.941C579.45 133.753 580.622 133.495 581.456 132.979C582.29 132.443 582.707 131.301 582.707 129.554V111.325C582.707 109.677 582.33 108.605 581.575 108.108C580.82 107.612 579.728 107.364 578.299 107.364H578.12V104.296H590.927L591.732 108.645H592.03C593.201 106.46 594.522 105.06 595.991 104.445C597.48 103.829 599.267 103.521 601.352 103.521C603.596 103.521 605.512 103.929 607.101 104.743C608.689 105.537 609.851 106.838 610.586 108.645H611.122C612.293 106.44 613.673 105.041 615.262 104.445C616.87 103.829 618.727 103.521 620.832 103.521C622.4 103.521 623.81 103.75 625.061 104.207C626.332 104.663 627.394 105.368 628.248 106.321C629.122 107.274 629.777 108.496 630.214 109.985C630.671 111.454 630.899 113.222 630.899 115.287V129.435C630.899 131.202 631.207 132.363 631.823 132.919C632.458 133.475 633.51 133.753 634.98 133.753H635.158V137H621.606V116.925C621.606 114.304 621.239 112.278 620.504 110.849C619.789 109.419 618.538 108.704 616.751 108.704C615.461 108.704 614.418 109.111 613.624 109.925C612.849 110.739 612.283 111.812 611.926 113.142C611.588 114.453 611.42 115.882 611.42 117.431V129.435C611.42 131.202 611.727 132.363 612.343 132.919C612.978 133.475 614.041 133.753 615.53 133.753H615.709ZM656.662 137.596C651.519 137.596 647.588 136.126 644.867 133.188C642.187 130.288 640.846 126.168 640.846 120.827C640.846 115.128 642.167 110.809 644.808 107.87C647.409 104.971 651.132 103.521 655.977 103.521C660.465 103.521 663.95 104.763 666.432 107.245C667.663 108.476 668.606 110.005 669.261 111.832C669.917 113.658 670.244 115.783 670.244 118.206V121.333H650.258C650.318 123.378 650.546 125.136 650.943 126.605C651.341 128.074 651.877 129.286 652.552 130.239C653.902 132.105 655.858 133.039 658.419 133.039C660.425 133.039 662.172 132.592 663.662 131.698C665.151 130.785 666.273 129.583 667.027 128.094C668.12 128.69 668.666 129.683 668.666 131.073C668.666 131.946 668.427 132.78 667.951 133.575C667.474 134.349 666.739 135.034 665.747 135.63C664.754 136.226 663.503 136.702 661.994 137.06C660.504 137.417 658.727 137.596 656.662 137.596ZM656.096 107.483C654.389 107.483 653.028 108.327 652.016 110.015C651.023 111.702 650.477 114.175 650.378 117.431H660.921C660.921 115.882 660.832 114.492 660.653 113.261C660.495 112.03 660.217 110.988 659.819 110.134C659.005 108.367 657.764 107.483 656.096 107.483Z" fill="#1B1A1A"/>
<path d="M246.073 242.958C232.228 242.958 220.979 231.924 220.979 218.345C220.979 204.765 232.228 193.731 246.073 193.731C259.918 193.731 271.167 204.765 271.167 218.345C271.167 231.924 259.918 242.958 246.073 242.958ZM246.073 198.824C235.101 198.824 226.171 207.583 226.171 218.345C226.171 229.107 235.101 237.866 246.073 237.866C257.045 237.866 265.975 229.107 265.975 218.345C265.975 207.583 257.045 198.824 246.073 198.824Z" fill="#292D32"/>
<path d="M246.073 255.553C244.169 255.553 242.612 254.162 242.612 252.294V252.023C242.612 250.155 244.169 248.628 246.073 248.628C247.977 248.628 249.534 250.155 249.534 252.023C249.534 253.89 247.977 255.553 246.073 255.553ZM270.786 245.98C269.886 245.98 269.021 245.64 268.329 244.995L267.879 244.554C266.529 243.23 266.529 241.091 267.879 239.767C269.229 238.443 271.409 238.443 272.759 239.767L273.209 240.208C274.559 241.532 274.559 243.671 273.209 244.995C272.551 245.64 271.686 245.98 270.786 245.98ZM221.36 245.98C220.46 245.98 219.595 245.64 218.903 244.995C217.553 243.671 217.553 241.532 218.903 240.208L219.353 239.767C220.703 238.443 222.883 238.443 224.233 239.767C225.583 241.091 225.583 243.23 224.233 244.554L223.783 244.995C223.125 245.64 222.226 245.98 221.36 245.98ZM280.685 221.74H280.408C278.505 221.74 276.947 220.212 276.947 218.345C276.947 216.477 278.505 214.95 280.408 214.95C282.312 214.95 284.008 216.477 284.008 218.345C284.008 220.212 282.589 221.74 280.685 221.74ZM211.738 221.74H211.461C209.558 221.74 208 220.212 208 218.345C208 216.477 209.558 214.95 211.461 214.95C213.365 214.95 215.061 216.477 215.061 218.345C215.061 220.212 213.642 221.74 211.738 221.74ZM270.336 197.941C269.436 197.941 268.571 197.601 267.879 196.956C266.529 195.632 266.529 193.493 267.879 192.169L268.329 191.728C269.678 190.404 271.859 190.404 273.209 191.728C274.559 193.052 274.559 195.191 273.209 196.515L272.759 196.956C272.101 197.601 271.236 197.941 270.336 197.941ZM221.81 197.941C220.91 197.941 220.045 197.601 219.353 196.956L218.903 196.481C217.553 195.157 217.553 193.018 218.903 191.694C220.253 190.37 222.433 190.37 223.783 191.694L224.233 192.135C225.583 193.46 225.583 195.598 224.233 196.922C223.575 197.601 222.675 197.941 221.81 197.941ZM246.073 187.926C244.169 187.926 242.612 186.534 242.612 184.667V184.395C242.612 182.528 244.169 181 246.073 181C247.977 181 249.534 182.528 249.534 184.395C249.534 186.262 247.977 187.926 246.073 187.926Z" fill="#292D32"/>
<path d="M446.073 242.958C432.228 242.958 420.979 231.924 420.979 218.345C420.979 204.765 432.228 193.731 446.073 193.731C459.918 193.731 471.167 204.765 471.167 218.345C471.167 231.924 459.918 242.958 446.073 242.958ZM446.073 198.824C435.101 198.824 426.171 207.583 426.171 218.345C426.171 229.107 435.101 237.866 446.073 237.866C457.045 237.866 465.975 229.107 465.975 218.345C465.975 207.583 457.045 198.824 446.073 198.824Z" fill="#292D32"/>
<path d="M446.073 255.553C444.169 255.553 442.612 254.162 442.612 252.294V252.023C442.612 250.155 444.169 248.628 446.073 248.628C447.977 248.628 449.534 250.155 449.534 252.023C449.534 253.89 447.977 255.553 446.073 255.553ZM470.786 245.98C469.886 245.98 469.021 245.64 468.329 244.995L467.879 244.554C466.529 243.23 466.529 241.091 467.879 239.767C469.229 238.443 471.409 238.443 472.759 239.767L473.209 240.208C474.559 241.532 474.559 243.671 473.209 244.995C472.551 245.64 471.686 245.98 470.786 245.98ZM421.36 245.98C420.46 245.98 419.595 245.64 418.903 244.995C417.553 243.671 417.553 241.532 418.903 240.208L419.353 239.767C420.703 238.443 422.883 238.443 424.233 239.767C425.583 241.091 425.583 243.23 424.233 244.554L423.783 244.995C423.125 245.64 422.226 245.98 421.36 245.98ZM480.685 221.74H480.408C478.505 221.74 476.947 220.212 476.947 218.345C476.947 216.477 478.505 214.95 480.408 214.95C482.312 214.95 484.008 216.477 484.008 218.345C484.008 220.212 482.589 221.74 480.685 221.74ZM411.738 221.74H411.461C409.558 221.74 408 220.212 408 218.345C408 216.477 409.558 214.95 411.461 214.95C413.365 214.95 415.061 216.477 415.061 218.345C415.061 220.212 413.642 221.74 411.738 221.74ZM470.336 197.941C469.436 197.941 468.571 197.601 467.879 196.956C466.529 195.632 466.529 193.493 467.879 192.169L468.329 191.728C469.678 190.404 471.859 190.404 473.209 191.728C474.559 193.052 474.559 195.191 473.209 196.515L472.759 196.956C472.101 197.601 471.236 197.941 470.336 197.941ZM421.81 197.941C420.91 197.941 420.045 197.601 419.353 196.956L418.903 196.481C417.553 195.157 417.553 193.018 418.903 191.694C420.253 190.37 422.433 190.37 423.783 191.694L424.233 192.135C425.583 193.46 425.583 195.598 424.233 196.922C423.575 197.601 422.675 197.941 421.81 197.941ZM446.073 187.926C444.169 187.926 442.612 186.534 442.612 184.667V184.395C442.612 182.528 444.169 181 446.073 181C447.977 181 449.534 182.528 449.534 184.395C449.534 186.262 447.977 187.926 446.073 187.926Z" fill="#292D32"/>
<path d="M653.073 242.958C639.228 242.958 627.979 231.924 627.979 218.345C627.979 204.765 639.228 193.731 653.073 193.731C666.918 193.731 678.167 204.765 678.167 218.345C678.167 231.924 666.918 242.958 653.073 242.958ZM653.073 198.824C642.101 198.824 633.171 207.583 633.171 218.345C633.171 229.107 642.101 237.866 653.073 237.866C664.045 237.866 672.975 229.107 672.975 218.345C672.975 207.583 664.045 198.824 653.073 198.824Z" fill="#292D32"/>
<path d="M653.073 255.553C651.169 255.553 649.612 254.162 649.612 252.294V252.023C649.612 250.155 651.169 248.628 653.073 248.628C654.977 248.628 656.534 250.155 656.534 252.023C656.534 253.89 654.977 255.553 653.073 255.553ZM677.786 245.98C676.886 245.98 676.021 245.64 675.329 244.995L674.879 244.554C673.529 243.23 673.529 241.091 674.879 239.767C676.229 238.443 678.409 238.443 679.759 239.767L680.209 240.208C681.559 241.532 681.559 243.671 680.209 244.995C679.551 245.64 678.686 245.98 677.786 245.98ZM628.36 245.98C627.46 245.98 626.595 245.64 625.903 244.995C624.553 243.671 624.553 241.532 625.903 240.208L626.353 239.767C627.703 238.443 629.883 238.443 631.233 239.767C632.583 241.091 632.583 243.23 631.233 244.554L630.783 244.995C630.125 245.64 629.226 245.98 628.36 245.98ZM687.685 221.74H687.408C685.505 221.74 683.947 220.212 683.947 218.345C683.947 216.477 685.505 214.95 687.408 214.95C689.312 214.95 691.008 216.477 691.008 218.345C691.008 220.212 689.589 221.74 687.685 221.74ZM618.738 221.74H618.461C616.558 221.74 615 220.212 615 218.345C615 216.477 616.558 214.95 618.461 214.95C620.365 214.95 622.061 216.477 622.061 218.345C622.061 220.212 620.642 221.74 618.738 221.74ZM677.336 197.941C676.436 197.941 675.571 197.601 674.879 196.956C673.529 195.632 673.529 193.493 674.879 192.169L675.329 191.728C676.678 190.404 678.859 190.404 680.209 191.728C681.559 193.052 681.559 195.191 680.209 196.515L679.759 196.956C679.101 197.601 678.236 197.941 677.336 197.941ZM628.81 197.941C627.91 197.941 627.045 197.601 626.353 196.956L625.903 196.481C624.553 195.157 624.553 193.018 625.903 191.694C627.253 190.37 629.433 190.37 630.783 191.694L631.233 192.135C632.583 193.46 632.583 195.598 631.233 196.922C630.575 197.601 629.675 197.941 628.81 197.941ZM653.073 187.926C651.169 187.926 649.612 186.534 649.612 184.667V184.395C649.612 182.528 651.169 181 653.073 181C654.977 181 656.534 182.528 656.534 184.395C656.534 186.262 654.977 187.926 653.073 187.926Z" fill="#292D32"/>
<path d="M319.086 219.309C320.223 235.27 334.031 248.255 350.556 248.968C362.215 249.464 372.642 244.133 378.898 235.735C381.489 232.294 380.099 230.001 375.77 230.776C373.653 231.148 371.473 231.303 369.198 231.21C353.747 230.59 341.109 217.914 341.045 202.945C341.014 198.916 341.867 195.104 343.415 191.633C345.121 187.79 343.068 185.961 339.118 187.604C326.606 192.78 318.043 205.145 319.086 219.309Z" stroke="#292D32" stroke-width="5.96545" stroke-linecap="round" stroke-linejoin="round"/>
<path d="M519.086 219.309C520.223 235.27 534.031 248.255 550.556 248.968C562.215 249.464 572.642 244.133 578.898 235.735C581.489 232.294 580.099 230.001 575.77 230.776C573.653 231.148 571.473 231.303 569.198 231.21C553.747 230.59 541.109 217.914 541.045 202.945C541.014 198.916 541.867 195.104 543.415 191.633C545.121 187.79 543.068 185.961 539.118 187.604C526.606 192.78 518.043 205.145 519.086 219.309Z" stroke="#292D32" stroke-width="5.96545" stroke-linecap="round" stroke-linejoin="round"/>
<defs>
<linearGradient id="paint0_linear_102_29" x1="450" y1="0" x2="450" y2="300" gradientUnits="userSpaceOnUse">
<stop stop-color="#2E7EC8"/>
<stop offset="1" stop-color="#07C6F0" stop-opacity="0"/>
</linearGradient>
</defs>
</svg>
